<?xml version="1.0" encoding="UTF-8" standalone="no"?>
<svg
   xmlns:dc="http://purl.org/dc/elements/1.1/"
   xmlns:cc="http://creativecommons.org/ns#"
   xmlns:rdf="http://www.w3.org/1999/02/22-rdf-syntax-ns#"
   xmlns:svg="http://www.w3.org/2000/svg"
   xmlns="http://www.w3.org/2000/svg"
   xmlns:sodipodi="http://sodipodi.sourceforge.net/DTD/sodipodi-0.dtd"
   xmlns:inkscape="http://www.inkscape.org/namespaces/inkscape"
   width="257.56921mm"
   height="33.401733mm"
   viewBox="0 0 257.56921 33.401733"
   version="1.1"
   id="svg8"
   inkscape:version="1.0.1 (3bc2e813f5, 2020-09-07)"
   sodipodi:docname="face_mask_detector_logo.svg">
  <defs
     id="defs2" />
  <sodipodi:namedview
     id="base"
     pagecolor="#ffffff"
     bordercolor="#666666"
     borderopacity="1.0"
     inkscape:pageopacity="0.0"
     inkscape:pageshadow="2"
     inkscape:zoom="1.487795"
     inkscape:cx="498.4679"
     inkscape:cy="129.34921"
     inkscape:document-units="mm"
     inkscape:current-layer="layer1"
     inkscape:document-rotation="0"
     showgrid="false"
     fit-margin-top="0"
     fit-margin-left="0"
     fit-margin-right="0"
     fit-margin-bottom="0"
     inkscape:window-width="2560"
     inkscape:window-height="1378"
     inkscape:window-x="2729"
     inkscape:window-y="-6"
     inkscape:window-maximized="1" />
  <metadata
     id="metadata5">
    <rdf:RDF>
      <cc:Work
         rdf:about="">
        <dc:format>image/svg+xml</dc:format>
        <dc:type
           rdf:resource="http://purl.org/dc/dcmitype/StillImage" />
        <dc:title></dc:title>
      </cc:Work>
    </rdf:RDF>
  </metadata>
  <g
     inkscape:label="Ebene 1"
     inkscape:groupmode="layer"
     id="layer1"
     transform="translate(139.52403,-376.38685)">
    <g
       id="g876"
       transform="matrix(0.27225699,0,0,0.27225699,-73.548999,369.97103)"
       inkscape:export-xdpi="95.800003"
       inkscape:export-ydpi="95.800003">
      <path
         style="fill:#b9e2f8;stroke-width:0.264583"
         d="m -144.5577,145.77715 c -6.1303,-0.95361 -9.22008,-1.82576 -16.00729,-4.51836 -8.32717,-3.30354 -14.71423,-6.93217 -22.48958,-12.77682 -3.67445,-2.76204 -5.42805,-4.47181 -7.31084,-7.12807 -1.28795,-1.81705 -3.45663,-5.93371 -4.63791,-8.80382 l -0.55414,-1.34636 -4.19959,-0.1769 c -16.53871,-0.69663 -25.70201,-3.69808 -32.30423,-10.5813 -4.60379,-4.799744 -8.02551,-11.553784 -9.65294,-19.053744 -0.82522,-3.80293 -0.81417,-10.691454 0.0221,-13.797429 1.98843,-7.385071 6.75911,-11.89293 14.70971,-13.89934 3.82704,-0.965787 8.19004,-1.313868 16.49172,-1.315706 9.22632,-0.0021 20.9675,-1.063699 26.00099,-2.351051 5.66984,-1.450099 12.86407,-4.852037 17.44735,-8.250332 2.47817,-1.837452 3.96146,-3.167592 9.48412,-8.504867 2.23581,-2.160759 4.43847,-4.121663 4.89479,-4.357563 0.45633,-0.2359 1.2464,-0.759343 1.75572,-1.163209 1.76598,-1.400323 5.59104,-3.187162 7.40834,-3.460734 0.94588,-0.14239 2.43416,-0.367069 3.30729,-0.499287 2.08082,-0.315097 9.19651,-0.297995 10.71562,0.02577 0.65485,0.139557 1.83202,0.368911 2.61595,0.509674 1.59625,0.286621 4.47142,1.55175 5.75972,2.534383 0.46672,0.355989 1.13648,0.756706 1.48835,0.890487 0.95689,0.36381 3.23754,2.346288 8.52452,7.410016 7.52859,7.210678 10.94973,9.539411 18.71001,12.735691 4.15305,1.710545 7.2102,2.500601 12.20976,3.155355 7.14575,0.935821 13.06158,1.324128 20.19655,1.325679 3.81199,7.94e-4 8.45543,0.131548 10.31875,0.290489 11.73498,1.00099 18.60517,5.877213 21.02746,14.924557 0.82918,3.097022 0.83348,9.989477 0.009,13.797427 -1.62534,7.50328 -4.95498,14.07854 -9.63046,19.017854 -6.42077,6.78311 -16.02953,9.97962 -31.83027,10.58888 -2.18281,0.0842 -4.21772,0.20261 -4.52203,0.2632 -0.39376,0.0784 -0.76888,0.62664 -1.30112,1.90161 -2.07993,4.98245 -4.4172,8.76621 -7.05168,11.41584 -1.90649,1.91746 -7.27407,6.01943 -11.21832,8.57318 -9.12299,5.90679 -21.01177,10.75276 -30.41101,12.39581 -4.72897,0.82666 -15.35121,0.94843 -19.97604,0.22901 z m -52.51534,-38.10562 c 0.0924,-0.14947 -0.19297,-1.48893 -0.63411,-2.97656 -3.40683,-11.488714 -5.93812,-25.238224 -7.0446,-38.264932 -0.22744,-2.677663 -0.47029,-4.960319 -0.53967,-5.072571 -0.0694,-0.112249 -0.13864,-1.400365 -0.15393,-2.862479 -0.0255,-2.442771 -0.0722,-2.672479 -0.5751,-2.832097 -0.74597,-0.236763 -12.94851,0.109855 -16.04793,0.455845 -5.46796,0.610394 -9.42538,2.253205 -12.34724,5.125611 -3.32211,3.265877 -4.59319,6.859738 -4.59647,12.996071 -0.003,5.913748 1.26959,11.013918 4.11489,16.489178 4.66208,8.97133 10.90116,13.460384 21.68013,15.598994 3.78923,0.7518 7.86913,1.17302 15.26407,1.57593 0.3916,0.0213 0.78758,-0.0835 0.87996,-0.23299 z m 128.18617,0.002 c 16.65152,-1.02147 24.55558,-4.20838 30.66468,-12.363964 2.94248,-3.92818 5.59753,-10.21641 6.52641,-15.45718 0.58056,-3.27555 0.57196,-8.226096 -0.0188,-10.802341 -1.28704,-5.612905 -4.55765,-9.391078 -9.85201,-11.380906 -3.51725,-1.321922 -5.60856,-1.59957 -14.37753,-1.90881 -4.5959,-0.162075 -8.55472,-0.21849 -8.7974,-0.12537 -0.35854,0.137589 -0.44275,0.55508 -0.44938,2.228138 -0.004,1.132353 -0.12419,2.951792 -0.26599,4.043199 -0.1418,1.091406 -0.37845,3.591718 -0.52589,5.556249 -0.83803,11.166291 -3.97192,27.842491 -7.09589,37.758955 -0.70348,2.23306 -0.76276,2.72453 -0.3282,2.72107 0.0849,-8e-4 2.11888,-0.12174 4.51997,-0.26904 z"
         id="path861"
         sodipodi:nodetypes="ssssscssssscsssssssssssssscsscscssssssssssscssscssssssscssscssscss" />
      <path
         style="fill:#6fc8f0;stroke-width:0.264583"
         d="m -142.9702,125.23472 c -13.1728,-1.66194 -24.47098,-5.86351 -35.20358,-13.09155 -3.40261,-2.29154 -4.04361,-2.87937 -3.90909,-3.58487 0.17208,-0.9025 1.19773,-0.70712 2.81312,0.5359 9.22617,7.09937 23.88174,12.85797 36.09069,14.18109 3.2514,0.35236 10.72245,0.35612 13.8349,0.007 13.30945,-1.49307 28.08604,-6.91207 39.10274,-14.34009 1.69329,-1.14171 2.64882,-1.23668 2.78524,-0.27683 0.0693,0.48786 -0.36483,0.88339 -2.51354,2.28986 -10.3434,6.77044 -23.53155,11.85413 -35.80256,13.80094 -2.6885,0.42654 -14.91393,0.76675 -17.19792,0.47859 z m -59.26666,-14.55287 c -0.50932,-0.0479 -2.41432,-0.21527 -4.23333,-0.37182 -9.51329,-0.81875 -17.00359,-3.22677 -22.18748,-7.13294 -6.08455,-4.584854 -10.80754,-12.628954 -12.79096,-21.785314 -0.82689,-3.81727 -0.82086,-10.705207 0.0121,-13.797429 2.20861,-8.199432 7.94557,-12.764097 18.16533,-14.453398 1.11865,-0.18491 5.93838,-0.332907 12.17083,-0.373727 10.66171,-0.06983 15.65564,-0.390271 22.72462,-1.458161 4.97169,-0.751059 9.39295,-2.206781 14.49794,-4.773525 5.44681,-2.738599 8.25543,-4.850616 15.11836,-11.368648 2.61111,-2.479889 5.1503,-4.816141 5.64264,-5.191672 l 0.89518,-0.682784 7.60994,-4.159723 c 0,0 -0.87729,-0.217732 5.27954,-0.908362 4.10218,-0.04636 6.66771,0.116833 9.00443,0.110627 h 1.05738 l 1.86697,0.344942 c 0,0 1.14284,0.182211 3.5279,1.281558 3.88253,1.884147 4.28018,2.606833 4.28018,2.606833 0.51173,0 3.72103,2.74061 7.84598,6.700136 6.32928,6.075452 9.63626,8.571121 14.74535,11.127832 5.47933,2.741986 9.68489,4.146021 14.66381,4.895538 7.28056,1.095999 12.11901,1.403331 23.11063,1.467953 8.67846,0.05102 11.01193,0.143507 12.96459,0.513842 9.83841,1.865924 15.17045,6.270937 17.37352,14.352976 0.83129,3.049577 0.83637,9.950882 0.0101,13.765192 -1.12665,5.20113 -3.01768,9.81821 -5.72738,13.98382 -6.8003,10.454054 -16.55376,14.631104 -35.93179,15.388254 l -4.43177,0.17316 v -0.58395 c 0,-0.87756 0.74613,-2.14501 1.26357,-2.1464 1.80205,-0.005 9.75963,-0.61467 12.36247,-0.94737 13.76831,-1.75991 21.11742,-6.46038 26.36101,-16.860404 2.64429,-5.24463 3.95704,-10.56515 3.96766,-16.080757 0.0197,-10.23807 -4.54291,-15.891721 -14.60027,-18.091493 -2.2036,-0.481978 -18.08431,-1.167651 -19.39397,-0.837364 -0.69465,0.175186 -0.74459,0.268986 -0.62329,1.170678 0.0725,0.539125 0.004,2.14109 -0.15337,3.559918 l -0.28523,2.579688 -1.47273,-0.0019 c -1.88436,-0.0024 -11.73941,-0.918654 -15.36335,-1.428313 -7.80066,-1.097058 -18.19828,-5.639667 -24.20937,-10.576819 -0.7276,-0.597611 -2.69214,-2.266907 -4.36562,-3.709548 -6.93483,-5.978202 -11.24639,-8.515421 -16.19431,-9.529831 -2.48857,-0.510201 -11.58826,-0.613809 -14.36507,-0.16356 -4.00736,0.649783 -7.95626,2.475114 -12.08108,5.584349 -0.92249,0.695359 -3.58225,2.892872 -5.91058,4.883364 -4.86345,4.157763 -8.04672,6.357662 -12.17083,8.411035 -5.6115,2.793936 -11.39887,4.59504 -17.06563,5.311042 -4.08198,0.515763 -12.09388,1.216657 -13.93079,1.218686 l -1.36308,0.0016 -0.19862,-1.653646 c -0.10925,-0.909505 -0.21023,-2.47414 -0.22442,-3.476963 -0.0197,-1.392285 -0.12972,-1.888855 -0.46542,-2.100557 -0.30692,-0.19355 -2.98243,-0.185988 -8.86354,0.02506 -8.80705,0.316039 -10.60848,0.545131 -14.24164,1.811136 -5.34223,1.861545 -8.86643,5.753473 -10.18303,11.245585 -0.66455,2.772111 -0.72305,8.0849 -0.12675,11.51109 1.10795,6.36597 4.61084,13.60912 8.73682,18.06566 2.13504,2.306104 4.33021,3.875804 7.65527,5.474044 5.65432,2.71784 10.79031,3.70564 23.37568,4.49584 l 2.73819,0.17192 0.37067,0.88713 c 0.70393,1.68475 0.6775,1.70244 -2.47361,1.65553 -1.56435,-0.0233 -3.26099,-0.0816 -3.77031,-0.12953 z m 56.75312,-10.68061 c -12.47501,-0.899214 -24.74568,-3.211694 -34.52812,-6.507024 -5.48349,-1.84718 -8.3024,-3.18544 -8.4177,-3.99625 -0.14903,-1.04806 0.90667,-0.99248 3.63153,0.19119 6.79654,2.9524 17.22305,5.67337 27.27575,7.11803 6.53931,0.93976 11.75691,1.35018 19.31458,1.51931 20.60417,0.4611 39.80456,-2.57318 52.60412,-8.31314 2.92933,-1.31366 3.30043,-1.42056 3.66522,-1.05577 0.72987,0.72987 0.18454,1.39426 -1.969,2.39884 -8.70151,4.05908 -20.58092,6.8662 -34.98576,8.26717 -5.08462,0.494524 -21.69626,0.730444 -26.59062,0.377644 z m -41.6448,-26.678804 c -1.89609,-0.192485 -2.53397,-0.705753 -1.87054,-1.505133 0.33285,-0.401061 0.76054,-0.431829 3.82111,-0.274894 3.93968,0.202009 12.87324,-0.189622 18.13069,-0.794819 7.11299,-0.81879 9.67141,-1.393298 18.71512,-4.202578 5.53196,-1.718408 7.85269,-2.086062 13.29946,-2.106922 5.71463,-0.02188 7.52079,0.278871 12.83229,2.136762 7.19389,2.516325 9.04234,3.04991 12.6692,3.65719 6.09109,1.019886 9.86851,1.282062 19.06166,1.322993 7.83111,0.03486 8.74034,0.08355 8.99134,0.481481 0.20945,0.332047 0.17376,0.548185 -0.14282,0.864759 -1.0042,1.004207 -17.46912,0.741018 -25.63042,-0.409702 -6.03213,-0.850514 -7.16847,-1.148258 -14.94896,-3.916921 -5.5562,-1.977157 -7.35266,-2.295604 -12.83229,-2.2747 -5.47179,0.02088 -7.61237,0.402376 -14.62942,2.607316 -7.87641,2.474976 -11.23781,3.148052 -19.77666,3.960016 -4.65131,0.442296 -15.15437,0.712536 -17.68976,0.455152 z"
         id="path857"
         sodipodi:nodetypes="csssscscsscccssscssssssccccccccsssssscsscscsssssccccsscssssssccsssssssssscssccssssssssssssssssssssssssssss" />
      <path
         style="fill:#91afd5;stroke-width:0.264583"
         d="m -142.9702,125.23472 c -13.1728,-1.66194 -24.47098,-5.86351 -35.20358,-13.09155 -3.40261,-2.29154 -4.04361,-2.87937 -3.90909,-3.58487 0.17208,-0.9025 1.19773,-0.70712 2.81312,0.5359 9.22617,7.09937 23.88174,12.85797 36.09069,14.18109 3.2514,0.35236 10.72245,0.35612 13.8349,0.007 13.30945,-1.49307 28.08604,-6.91207 39.10274,-14.34009 1.69329,-1.14171 2.64882,-1.23668 2.78524,-0.27683 0.0693,0.48786 -0.36483,0.88339 -2.51354,2.28986 -10.3434,6.77044 -23.53155,11.85413 -35.80256,13.80094 -2.6885,0.42654 -14.91393,0.76675 -17.19792,0.47859 z m -59.26666,-14.55287 c -0.50932,-0.0479 -2.41432,-0.21527 -4.23333,-0.37182 -9.51329,-0.81875 -17.00359,-3.22677 -22.18748,-7.13294 -6.08455,-4.584854 -10.80754,-12.628954 -12.79096,-21.785314 -0.82689,-3.81727 -0.82086,-10.705207 0.0121,-13.797429 2.20801,-8.197201 8.08303,-12.865949 18.16533,-14.435592 1.01865,-0.158586 5.46675,-0.35469 9.88467,-0.435787 8.71585,-0.159994 8.49131,-0.194069 8.49982,1.289844 0.008,1.35151 -0.1097,1.417042 -2.37411,1.324575 -1.16004,-0.04737 -5.11787,0.04006 -8.79518,0.194292 -6.93558,0.290882 -9.15293,0.605282 -12.50375,1.772904 -5.34224,1.861544 -8.86643,5.753472 -10.18304,11.245584 -0.66454,2.772111 -0.72304,8.084899 -0.12674,11.511089 1.10795,6.36597 4.61084,13.60912 8.73681,18.06566 2.13505,2.306104 4.33022,3.875804 7.65527,5.474044 5.65433,2.71784 10.79031,3.70564 23.37569,4.49584 l 2.73819,0.17192 0.37066,0.88713 c 0.70394,1.68475 0.6775,1.70244 -2.4736,1.65553 -1.56435,-0.0233 -3.26099,-0.0816 -3.77031,-0.12953 z m 127.26458,-0.32879 c 0,-0.87756 0.74613,-2.14501 1.26356,-2.1464 1.80206,-0.005 9.75964,-0.61467 12.36248,-0.94737 13.7683,-1.75991 21.11742,-6.46038 26.361,-16.860404 2.6443,-5.24463 3.95705,-10.56515 3.96767,-16.080757 0.0197,-10.236975 -4.57928,-15.933099 -14.60028,-18.083315 -2.1206,-0.45502 -13.68314,-1.044736 -17.58784,-0.897022 -2.50209,0.09466 -2.66376,-0.02365 -2.46069,-1.800537 l 0.0868,-0.759574 8.33438,0.02609 c 6.6852,0.02093 8.85496,0.118039 10.96524,0.490752 9.68027,1.709708 15.18443,6.246386 17.3885,14.332058 0.83129,3.049576 0.83636,9.950885 0.0101,13.765185 -1.12665,5.20113 -3.01768,9.81821 -5.72738,13.98382 -6.8003,10.454064 -16.55376,14.631114 -35.93179,15.388264 l -4.43177,0.17316 v -0.58395 z m -70.51146,-10.35182 c -12.47501,-0.899214 -24.74568,-3.211694 -34.52812,-6.507024 -5.48349,-1.84718 -8.3024,-3.18544 -8.4177,-3.99625 -0.14903,-1.04806 0.90667,-0.99248 3.63153,0.19119 6.79654,2.9524 17.22305,5.67337 27.27575,7.11803 6.53931,0.93976 11.75691,1.35018 19.31458,1.51931 20.60417,0.4611 39.80456,-2.57318 52.60412,-8.31314 2.92933,-1.31366 3.30043,-1.42056 3.66522,-1.05577 0.72987,0.72987 0.18454,1.39426 -1.969,2.39884 -8.70151,4.05908 -20.58092,6.8662 -34.98576,8.26717 -5.08462,0.494524 -21.69626,0.730444 -26.59062,0.377644 z m -41.6448,-26.678804 c -1.89609,-0.192485 -2.53397,-0.705753 -1.87054,-1.505133 0.33285,-0.401061 0.76054,-0.431829 3.82111,-0.274894 3.93968,0.202009 12.87324,-0.189622 18.13069,-0.794819 7.11299,-0.81879 9.67141,-1.393298 18.71512,-4.202578 5.53196,-1.718408 7.85269,-2.086062 13.29946,-2.106922 5.71463,-0.02188 7.52079,0.278871 12.83229,2.136762 7.19389,2.516325 9.04234,3.04991 12.6692,3.65719 6.09109,1.019886 9.86851,1.282062 19.06166,1.322993 7.83111,0.03486 8.74034,0.08355 8.99134,0.481481 0.20945,0.332047 0.17376,0.548185 -0.14282,0.864759 -1.0042,1.004207 -17.46912,0.741018 -25.63042,-0.409702 -6.03213,-0.850514 -7.16847,-1.148258 -14.94896,-3.916921 -5.5562,-1.977157 -7.35266,-2.295604 -12.83229,-2.2747 -5.47179,0.02088 -7.61237,0.402376 -14.62942,2.607316 -7.87641,2.474976 -11.23781,3.148052 -19.77666,3.960016 -4.65131,0.442296 -15.15437,0.712536 -17.68976,0.455152 z m -18.01874,-15.498273 c 0,-0.512095 0.13573,-0.680857 0.54757,-0.680857 0.41589,0 0.52724,0.142515 0.46302,0.592608 -0.12546,0.879409 -1.01059,0.956702 -1.01059,0.08825 z m 138.81805,0.46567 c -0.39477,-0.394769 -0.16346,-1.146527 0.35278,-1.146527 0.38806,0 0.52917,0.17639 0.52917,0.661458 0,0.622567 -0.48029,0.886727 -0.88195,0.485069 z m -133.38736,-0.606468 c -0.39823,-0.644358 0.54589,-1.101801 2.59367,-1.256675 1.74613,-0.132059 2.04081,-0.09174 2.19106,0.299802 0.2792,0.727578 -0.19791,0.944967 -2.4561,1.119108 -1.55057,0.11957 -2.18163,0.0756 -2.32863,-0.162235 z m 125.00889,0.02042 c -0.69512,-0.122809 -0.92604,-0.295566 -0.92604,-0.692775 0,-0.486317 0.16583,-0.526603 2.04801,-0.497501 2.09278,0.03236 2.93312,0.361519 2.67045,1.046012 -0.15277,0.39811 -1.96534,0.467061 -3.79242,0.144264 z m -115.61982,-0.953624 c -0.55042,-0.663223 0.10446,-1.075996 2.24441,-1.414655 1.53134,-0.242343 1.91544,-0.228068 2.22624,0.08273 0.59164,0.591643 -0.0457,1.102355 -1.63409,1.309516 -0.76144,0.09931 -1.6314,0.241088 -1.93324,0.315068 -0.32136,0.07876 -0.69573,-0.04253 -0.90332,-0.292656 z m 107.55128,0.07515 c -1.64862,-0.264091 -2.25021,-0.56922 -2.25021,-1.141307 0,-0.556691 0.61076,-0.623366 2.60588,-0.284475 2.20898,0.375217 2.82352,0.78635 2.0399,1.364711 -0.28247,0.208483 -0.58013,0.364688 -0.66145,0.347117 -0.0813,-0.01757 -0.86169,-0.146291 -1.73412,-0.286046 z m -98.56956,-2.208826 c -0.4678,-0.56366 -0.005,-0.963729 1.93917,-1.675209 2.02952,-0.742829 2.63174,-0.735926 2.52202,0.02891 -0.0657,0.45805 -0.49724,0.750501 -1.93663,1.312439 -2.2075,0.861812 -2.09837,0.847381 -2.52456,0.333857 z m 89.57248,-0.333857 c -1.43939,-0.561938 -1.87093,-0.854389 -1.93664,-1.312439 -0.10993,-0.766326 0.47472,-0.770368 2.50841,-0.01736 1.9767,0.73193 2.41567,1.105897 1.95279,1.663639 -0.42619,0.513524 -0.31707,0.527954 -2.52456,-0.333857 z m -81.04726,-3.299758 c -0.40201,-0.484389 -0.12236,-0.798545 1.67226,-1.878616 1.79357,-1.079442 2.51354,-1.207087 2.51354,-0.44563 0,0.55063 -0.80082,1.205257 -2.56915,2.100133 -1.31244,0.66417 -1.25773,0.656585 -1.61665,0.224113 z m 72.99366,-0.46314 c -1.81321,-0.999403 -2.40007,-1.528406 -2.219,-2.000242 0.22227,-0.579226 0.79073,-0.449504 2.55516,0.58308 1.83281,1.072603 2.12318,1.390624 1.71678,1.880302 -0.37649,0.453636 -0.39876,0.448611 -2.05294,-0.46314 z M -165.01881,46.119 c -0.43707,-0.437076 -0.0648,-1.106212 1.26339,-2.271006 0.7882,-0.691224 1.67967,-1.256771 1.98103,-1.256771 1.01676,0 0.58812,0.94107 -1.06564,2.339607 -1.63319,1.381149 -1.86137,1.505583 -2.17878,1.18817 z m 57.26692,-1.143698 c -1.64133,-1.365928 -2.11784,-2.384079 -1.11577,-2.384079 0.77711,0 3.50268,2.413355 3.41199,3.021145 -0.1321,0.885312 -0.63434,0.745969 -2.29622,-0.637066 z m -50.56414,-5.532901 c 0,-0.5814 2.89842,-3.201177 3.54166,-3.201177 0.26762,0 0.4257,0.222279 0.42337,0.595312 -0.002,0.398785 -0.5028,1.010206 -1.51551,1.852083 -1.60599,1.335069 -2.44952,1.594647 -2.44952,0.753782 z m 43.55267,-0.744664 c -1.00503,-0.845008 -1.48392,-1.442717 -1.48392,-1.852083 0,-0.351251 0.16048,-0.60443 0.38314,-0.60443 0.64153,0 3.58561,2.614855 3.58561,3.184646 0,0.869582 -0.89727,0.606655 -2.48483,-0.728133 z m -36.32792,-4.743733 c -0.1922,-0.500864 0.25883,-0.893868 2.12368,-1.850464 1.36709,-0.701268 2.42553,-0.743006 2.42553,-0.09565 0,0.385697 -3.35716,2.355959 -4.0432,2.372887 -0.18647,0.0046 -0.41417,-0.187447 -0.50601,-0.426773 z m 29.06198,-0.354428 c -1.66209,-0.867428 -2.28733,-1.428882 -2.03888,-1.830879 0.28567,-0.462225 1.12498,-0.340104 2.51961,0.366609 1.82777,0.926205 2.68141,2.301729 1.38307,2.228651 -0.24607,-0.01384 -1.08478,-0.357822 -1.8638,-0.764381 z m 7.33577,-0.996373 c -0.32911,-0.419645 -0.31975,-0.429003 0.0999,-0.0999 0.44073,0.345644 0.58089,0.562917 0.36313,0.562917 -0.0549,0 -0.2633,-0.20836 -0.46302,-0.463021 z m -27.66213,-1.812809 c -0.24492,-0.638254 0.60179,-1.163055 1.88343,-1.167365 0.59065,-0.0021 1.31203,-0.06722 1.60307,-0.144963 0.29105,-0.07774 0.7673,0.03567 1.05834,0.252027 0.87741,0.652253 0.0451,1.130244 -2.31904,1.331729 -1.78404,0.152051 -2.07701,0.116325 -2.2258,-0.271428 z m 11.07999,0.227505 c -1.69356,-0.09579 -2.33063,-0.54224 -1.68914,-1.183727 0.29718,-0.29718 3.4301,-0.34566 4.30908,-0.06668 0.97765,0.310296 0.39763,1.567458 -0.64392,1.39567 -0.17,-0.02804 -1.05921,-0.09341 -1.97602,-0.145263 z"
         id="path855"
         sodipodi:nodetypes="csssscscssccsssscsscsssssssscssssscsssssscssscssccssssssssssssssssssssssssssssssssssssssssssssssssssssssssssssscsssssscscsssssssssssssssssssssscssssssssssssssssssssssscsssssssss" />
      <path
         style="fill:#679fd1;stroke-width:0.264583"
         d="m -140.59332,125.14339 c -10.50074,-0.69783 -21.88527,-4.14231 -31.5845,-9.55614 -5.13209,-2.86459 -9.68612,-6.09705 -9.68612,-6.87524 0,-0.85028 0.83456,-0.58231 2.9599,0.95041 4.68395,3.37789 11.04055,6.81998 16.83046,9.11366 18.43111,7.30151 37.40004,6.67732 57.46796,-1.89103 4.98457,-2.12825 9.83784,-4.7613 15.64152,-8.48601 0.52508,-0.33699 1.29182,-0.0789 1.29182,0.4348 0,0.72871 -7.31317,5.11884 -13.05383,7.83629 -13.25262,6.27335 -27.47736,9.29664 -39.86721,8.47326 z m -60.18833,-14.58717 c -12.75491,-0.70667 -20.84161,-2.78353 -26.9875,-6.93104 -6.16986,-4.163694 -11.47828,-12.956194 -13.52678,-22.404794 -0.67613,-3.11861 -0.6839,-10.690291 -0.0137,-13.361456 1.32844,-5.294786 4.70945,-9.546962 9.43946,-11.87166 4.92897,-2.422488 9.80725,-3.151595 20.24062,-3.025161 l 6.61458,0.08016 v 1.058334 1.058333 l -8.46666,0.165634 c -4.65667,0.0911 -9.16006,0.294646 -10.00754,0.452327 -8.74682,1.62742 -13.58609,5.534347 -15.45687,12.478913 -0.65254,2.422306 -0.65171,9.585336 0.001,12.609866 1.76661,8.18036 6.26976,15.98595 11.57977,20.071904 5.46701,4.20676 12.65719,6.30328 24.06964,7.01822 6.89564,0.43198 6.77032,0.40887 7.14682,1.31782 0.35571,0.85877 0.19889,1.60132 -0.3255,1.54129 -0.18646,-0.0213 -2.12496,-0.13775 -4.30778,-0.25869 z m 126.17816,-0.0771 c -0.0848,-0.2209 -0.0438,-0.73299 0.0911,-1.13797 0.29124,-0.87452 0.92025,-1.05706 3.79709,-1.10191 2.70934,-0.0422 9.61453,-0.71792 12.54406,-1.22746 8.1573,-1.41882 14.06562,-4.30578 18.25283,-8.918824 4.3031,-4.74072 7.62511,-11.83513 8.74934,-18.68486 0.53625,-3.267295 0.41107,-8.79601 -0.25549,-11.284532 -1.82085,-6.797905 -6.72813,-10.7282 -15.41623,-12.347038 -0.84748,-0.157908 -5.4104,-0.361455 -10.13983,-0.452326 l -8.59896,-0.165219 v -1.058333 -1.058334 l 6.74688,-0.08011 c 10.58047,-0.125637 15.42615,0.593887 20.37291,3.025119 3.47836,1.709542 6.33122,4.524348 7.87566,7.770619 1.72327,3.622132 2.03563,5.241726 2.04115,10.583333 0.004,3.892701 -0.0931,5.067671 -0.61001,7.376711 -2.28303,10.19903 -8.06428,18.922504 -15.26893,23.039644 -5.72768,3.27311 -13.78205,5.19828 -23.80349,5.68956 -1.74625,0.0856 -3.86102,0.21818 -4.69948,0.29461 -1.2089,0.11019 -1.55639,0.0558 -1.6786,-0.26268 z m -71.14483,-10.760994 c -12.54651,-0.83443 -24.97965,-3.23958 -35.42128,-6.85215 -5.59394,-1.93537 -7.50806,-2.99381 -6.67079,-3.68868 0.29916,-0.24829 0.62374,-0.20579 1.52462,0.19962 2.00081,0.9004 6.04968,2.34558 10.00807,3.57222 27.21731,8.434194 67.22679,7.374214 90.18512,-2.3893 1.54876,-0.65864 2.97072,-1.32258 3.15993,-1.47542 0.43808,-0.35389 1.26981,0.39658 0.97256,0.87754 -0.34926,0.56511 -5.0189,2.59704 -9.06343,3.94381 -9.31268,3.10099 -20.17063,5.03572 -32.72987,5.83198 -4.82161,0.305694 -17.24027,0.294604 -21.96493,-0.0196 z m -41.80417,-26.654958 c -1.08747,-0.145627 -1.32291,-0.27133 -1.32291,-0.706321 0,-0.515152 0.23125,-0.533527 8.73125,-0.693764 8.83196,-0.166495 11.51966,-0.364321 17.7085,-1.303425 4.43034,-0.672264 6.67761,-1.223692 12.3217,-3.023473 6.22757,-1.985835 8.85451,-2.505744 13.62604,-2.696776 6.26966,-0.25101 9.17708,0.282033 16.96985,3.111214 4.82162,1.750502 8.40459,2.610432 13.58953,3.261545 5.03434,0.632204 12.75779,1.004245 18.78541,0.904904 5.27362,-0.08691 5.42396,-0.07476 5.42396,0.438661 0,0.819999 -2.13444,0.981025 -10.98021,0.828357 -11.67313,-0.201461 -19.24725,-1.215628 -25.23019,-3.3783 -9.33432,-3.374104 -11.06172,-3.76016 -16.83855,-3.763235 -5.35221,-0.0029 -8.24731,0.510236 -14.8667,2.634758 -7.15283,2.295726 -11.43732,3.155688 -19.66143,3.94635 -4.62657,0.444796 -16.14585,0.722114 -18.25625,0.439505 z m -17.39092,-14.916493 c -0.18891,-0.512975 0.0545,-1.003369 0.49804,-1.003369 0.25316,0 0.36311,0.204674 0.30868,0.574588 -0.097,0.659137 -0.61959,0.93691 -0.80672,0.428781 z m 138.60699,0.135966 c -0.32708,-0.32708 -0.16477,-1.139335 0.22768,-1.139335 0.21828,0 0.39687,0.231098 0.39687,0.513551 0,0.552246 -0.3487,0.901636 -0.62455,0.625784 z m -133.38017,-0.599276 c -0.39823,-0.644358 0.54589,-1.101801 2.59367,-1.256675 1.74613,-0.132059 2.04081,-0.09174 2.19106,0.299802 0.2792,0.727578 -0.19791,0.944967 -2.4561,1.119108 -1.55057,0.11957 -2.18163,0.0756 -2.32863,-0.162235 z m 125.00889,0.02042 c -0.69512,-0.122809 -0.92604,-0.295566 -0.92604,-0.692775 0,-0.486317 0.16583,-0.526603 2.04801,-0.497501 2.09278,0.03236 2.93312,0.361519 2.67045,1.046012 -0.15277,0.39811 -1.96534,0.467061 -3.79242,0.144264 z m -115.61982,-0.953624 c -0.55042,-0.663223 0.10446,-1.075996 2.24441,-1.414655 1.53134,-0.242343 1.91544,-0.228068 2.22624,0.08273 0.59164,0.591643 -0.0457,1.102355 -1.63409,1.309516 -0.76144,0.09931 -1.6314,0.241088 -1.93324,0.315068 -0.32136,0.07876 -0.69573,-0.04253 -0.90332,-0.292656 z m 107.55128,0.07515 c -1.64862,-0.264091 -2.25021,-0.56922 -2.25021,-1.141307 0,-0.556691 0.61076,-0.623366 2.60588,-0.284475 2.20898,0.375217 2.82352,0.78635 2.0399,1.364711 -0.28247,0.208483 -0.58013,0.364688 -0.66145,0.347117 -0.0813,-0.01757 -0.86169,-0.146291 -1.73412,-0.286046 z m -98.56956,-2.208826 c -0.4678,-0.56366 -0.005,-0.963729 1.93917,-1.675209 2.02952,-0.742829 2.63174,-0.735926 2.52202,0.02891 -0.0657,0.45805 -0.49724,0.750501 -1.93663,1.312439 -2.2075,0.861812 -2.09837,0.847381 -2.52456,0.333857 z m 89.57248,-0.333857 c -1.43939,-0.561938 -1.87093,-0.854389 -1.93664,-1.312439 -0.10993,-0.766326 0.47472,-0.770368 2.50841,-0.01736 1.9767,0.73193 2.41567,1.105897 1.95279,1.663639 -0.42619,0.513524 -0.31707,0.527954 -2.52456,-0.333857 z m -81.04726,-3.299758 c -0.40201,-0.484389 -0.12236,-0.798545 1.67226,-1.878616 1.79357,-1.079442 2.51354,-1.207087 2.51354,-0.44563 0,0.55063 -0.80082,1.205257 -2.56915,2.100133 -1.31244,0.66417 -1.25773,0.656585 -1.61665,0.224113 z m 72.99366,-0.46314 c -1.81321,-0.999403 -2.40007,-1.528406 -2.219,-2.000242 0.22227,-0.579226 0.79073,-0.449504 2.55516,0.58308 1.83281,1.072603 2.12318,1.390624 1.71678,1.880302 -0.37649,0.453636 -0.39876,0.448611 -2.05294,-0.46314 z M -165.01881,46.119 c -0.43707,-0.437076 -0.0648,-1.106212 1.26339,-2.271006 0.7882,-0.691224 1.67967,-1.256771 1.98103,-1.256771 1.01676,0 0.58812,0.94107 -1.06564,2.339607 -1.63319,1.381149 -1.86137,1.505583 -2.17878,1.18817 z m 57.26692,-1.143698 c -1.64133,-1.365928 -2.11784,-2.384079 -1.11577,-2.384079 0.77711,0 3.50268,2.413355 3.41199,3.021145 -0.1321,0.885312 -0.63434,0.745969 -2.29622,-0.637066 z m -50.56414,-5.532901 c 0,-0.5814 2.89842,-3.201177 3.54166,-3.201177 0.26762,0 0.4257,0.222279 0.42337,0.595312 -0.002,0.398785 -0.5028,1.010206 -1.51551,1.852083 -1.60599,1.335069 -2.44952,1.594647 -2.44952,0.753782 z m 43.55267,-0.744664 c -1.00503,-0.845008 -1.48392,-1.442717 -1.48392,-1.852083 0,-0.351251 0.16048,-0.60443 0.38314,-0.60443 0.64153,0 3.58561,2.614855 3.58561,3.184646 0,0.869582 -0.89727,0.606655 -2.48483,-0.728133 z m -36.32792,-4.743733 c -0.1922,-0.500864 0.25883,-0.893868 2.12368,-1.850464 1.36709,-0.701268 2.42553,-0.743006 2.42553,-0.09565 0,0.385697 -3.35716,2.355959 -4.0432,2.372887 -0.18647,0.0046 -0.41417,-0.187447 -0.50601,-0.426773 z m 29.06198,-0.354428 c -1.66209,-0.867428 -2.28733,-1.428882 -2.03888,-1.830879 0.28567,-0.462225 1.12498,-0.340104 2.51961,0.366609 1.82777,0.926205 2.68141,2.301729 1.38307,2.228651 -0.24607,-0.01384 -1.08478,-0.357822 -1.8638,-0.764381 z m -20.30682,-2.758252 c -0.2683,-0.699196 0.15816,-0.9501 1.61488,-0.9501 0.78319,0 1.49756,-0.119063 1.5875,-0.264583 0.23039,-0.37278 0.73839,-0.328708 1.33849,0.11612 0.862,0.638963 0.0123,1.119039 -2.33461,1.319061 -1.69149,0.144164 -2.08127,0.105207 -2.20626,-0.220498 z m 11.02825,0.128712 c -1.7591,-0.158163 -2.19576,-0.481359 -1.46723,-1.085982 0.42367,-0.35161 3.15146,-0.423765 4.14146,-0.109551 0.95998,0.304686 0.36664,1.546542 -0.66601,1.39397 -0.17,-0.02511 -1.0737,-0.114413 -2.00822,-0.198437 z"
         id="path853" />
      <path
         style="fill:#4c70ac;stroke-width:0.264583"
         d="m -140.72124,124.96653 c -11.9091,-0.96475 -23.60665,-4.77566 -34.0295,-11.08638 -3.43836,-2.08182 -6.84862,-4.57814 -6.84862,-5.01321 0,-0.71394 0.4825,-0.63657 1.66607,0.26715 4.12211,3.14746 11.92976,7.4937 17.25164,9.60337 5.81207,2.30398 11.21158,3.77786 17.3302,4.73053 4.19036,0.65244 13.89988,0.64896 18.38854,-0.007 12.12824,-1.77127 24.8442,-6.5397 35.7972,-13.4238 2.877,-1.80823 3.09655,-1.89383 3.09655,-1.20733 0,1.03013 -10.37262,6.83062 -17.3034,9.67625 -11.96167,4.91122 -25.01655,7.29701 -35.34868,6.46001 z m -60.72187,-14.55155 c -7.37988,-0.50647 -12.63474,-1.29157 -16.77807,-2.50672 -3.32578,-0.97539 -7.94586,-3.20549 -10.20943,-4.92808 -6.1188,-4.656444 -10.78657,-12.654624 -12.73784,-21.826194 -0.81585,-3.83471 -0.81622,-10.238465 -8e-4,-13.295056 2.02383,-7.586037 7.12544,-12.166842 15.51331,-13.92961 2.92191,-0.614059 10.49758,-1.070883 16.01073,-0.96547 l 4.10104,0.07841 0.0796,0.949391 0.0796,0.949394 -7.6202,0.172345 c -7.96187,0.180072 -11.29691,0.528005 -14.49935,1.512662 -6.31126,1.940526 -10.28711,6.126937 -11.67302,12.291208 -0.62026,2.758834 -0.62235,7.835736 -0.005,11.244796 1.47241,8.1258 6.07602,16.35491 11.59362,20.724004 5.59623,4.43136 13.10077,6.55991 25.88089,7.34075 2.69214,0.16448 4.98186,0.38006 5.08827,0.47907 0.10641,0.099 0.27012,0.56324 0.3638,1.03163 l 0.17036,0.85163 -2.0836,-0.0462 c -1.14597,-0.0254 -2.61937,-0.083 -3.27422,-0.12794 z m 126.94341,0.0132 c -0.0738,-0.12976 0.0222,-0.60823 0.21327,-1.06327 l 0.34744,-0.82735 3.38595,-0.17899 c 13.96572,-0.73824 21.98653,-2.88905 27.75015,-7.44128 5.47604,-4.325104 9.71875,-11.747044 11.53448,-20.177724 0.78433,-3.64176 0.77748,-9.3844 -0.0147,-12.35148 -0.88725,-3.323015 -1.98638,-5.306147 -4.112,-7.419122 -2.90829,-2.890991 -6.43441,-4.474866 -11.79589,-5.298504 -1.47925,-0.227245 -5.70826,-0.456834 -10.27739,-0.557948 -8.32036,-0.184128 -8.21591,-0.163668 -7.87006,-1.541674 l 0.16587,-0.660865 5.08819,0.0069 c 15.15697,0.02056 21.45845,1.593186 26.38744,6.585344 6.60742,6.692106 6.96917,20.003739 0.87344,32.141069 -5.73204,11.413174 -14.35547,16.620874 -30.24248,18.263494 -5.18386,0.53598 -11.26763,0.81342 -11.43367,0.52141 z m -72.43925,-10.967464 c -11.54596,-0.98647 -21.57064,-2.82049 -30.51115,-5.58204 -4.65478,-1.43777 -9.2977,-3.23036 -10.04249,-3.87732 -1.12493,-0.97716 0.24582,-0.7556 3.7305,0.60298 10.52079,4.10175 22.80579,6.69272 37.22002,7.84989 5.12668,0.41156 18.94432,0.4087 24.20937,-0.005 12.09383,-0.95032 22.20324,-2.79041 30.61496,-5.57245 2.87681,-0.95145 7.41327,-2.77533 8.62028,-3.46577 0.49197,-0.28142 0.98143,-0.13761 0.98143,0.28837 0,0.33415 -3.26539,1.95403 -6.1953,3.07333 -7.53991,2.88044 -17.55675,5.03008 -29.52345,6.3358 -4.49883,0.49088 -24.62981,0.73452 -29.10417,0.35224 z m -41.34114,-26.6059 c -0.25466,-0.07694 -0.46302,-0.29401 -0.46302,-0.482372 0,-0.270158 1.80187,-0.373242 8.53281,-0.488162 8.58044,-0.146497 12.34396,-0.448751 18.98303,-1.524558 4.02223,-0.651769 5.18305,-0.947184 10.95744,-2.788554 7.31313,-2.332051 8.88037,-2.597986 15.36942,-2.607948 6.47993,-0.0099 7.85617,0.244517 14.55209,2.690651 5.1478,1.880581 5.83979,2.088181 8.99583,2.698787 6.35686,1.229873 11.65134,1.631381 21.49739,1.630262 6.67635,-7.94e-4 8.00365,0.06039 8.00365,0.368734 0,0.629187 -2.03114,0.739121 -10.93386,0.591791 -13.82205,-0.228741 -18.80049,-1.017106 -28.54304,-4.519975 -6.4916,-2.334009 -10.69646,-2.985209 -16.34263,-2.530954 -4.1412,0.333174 -6.4141,0.826691 -12.31068,2.673024 -2.76489,0.865746 -5.97958,1.796029 -7.14374,2.067301 -2.41064,0.561716 -8.46148,1.460833 -12.56771,1.867479 -3.0213,0.299202 -17.83488,0.581729 -18.58698,0.354494 z m -10.99055,-15.482997 c 0.13032,-0.391983 3.19094,-0.888291 3.87029,-0.627605 0.7462,0.286348 -0.0775,0.609108 -2.03994,0.799346 -1.58903,0.15404 -1.92808,0.122224 -1.83035,-0.171741 z m 125.0172,0.06467 c -1.57073,-0.252476 -1.03794,-0.698688 0.73636,-0.616701 1.85811,0.08586 2.34396,0.220345 2.11783,0.586234 -0.17499,0.283128 -1.21337,0.294214 -2.85419,0.03047 z m -115.81259,-1.031413 c 0,-0.352806 0.50529,-0.503883 2.4474,-0.731745 0.96415,-0.113122 1.52135,-0.0808 1.52135,0.08826 0,0.376396 -0.64625,0.580657 -2.42552,0.766628 -1.02429,0.107058 -1.54323,0.06565 -1.54323,-0.123148 z m 107.28854,0.07903 c -0.14552,-0.04854 -0.59201,-0.160473 -0.99219,-0.248735 -0.40018,-0.08826 -0.7276,-0.29265 -0.7276,-0.454194 0,-0.20292 0.49627,-0.23757 1.60536,-0.112091 1.81936,0.205838 2.36339,0.368991 2.36339,0.708782 0,0.221506 -1.6673,0.30027 -2.24896,0.106238 z m -98.23359,-2.296278 c 0.15262,-0.457859 3.41156,-1.617181 3.70923,-1.319506 0.30048,0.300479 0.17717,0.380696 -1.65676,1.077727 -1.6432,0.624539 -2.202,0.690364 -2.05247,0.241779 z m 90.1638,0.115438 c -1.97238,-0.757545 -2.70532,-1.175062 -2.47213,-1.408245 0.30626,-0.30626 3.58451,0.838563 3.74039,1.306208 0.10304,0.309105 -0.585,0.364461 -1.26826,0.102037 z m -81.75625,-3.750413 c 0,-0.321535 3.24187,-2.130698 3.51527,-1.961732 0.35701,0.220649 -0.36653,0.883663 -1.70392,1.561367 -1.34993,0.684064 -1.81135,0.786051 -1.81135,0.400365 z M -99.97541,50.1 c -0.58208,-0.353883 -1.23692,-0.751964 -1.45521,-0.884624 -0.26424,-0.160589 -0.30845,-0.329067 -0.13229,-0.504126 0.28735,-0.285549 3.57188,1.407903 3.57188,1.841603 0,0.416809 -0.88679,0.214434 -1.98438,-0.452853 z m -64.9552,-4.566221 c 0,-0.127844 0.66272,-0.798621 1.47271,-1.49062 0.98181,-0.838785 1.56091,-1.169983 1.73729,-0.993595 0.17639,0.176389 -0.21378,0.673264 -1.1705,1.490622 -1.37157,1.171766 -2.0395,1.497166 -2.0395,0.993593 z m 57.21159,-0.978699 c -1.34364,-1.175393 -1.68347,-1.699273 -1.10227,-1.699273 0.34742,0 3.15734,2.399612 3.15734,2.696297 0,0.503412 -0.76301,0.133233 -2.05507,-0.997024 z m -50.18215,-5.109755 c -0.18509,-0.299482 2.40892,-2.674935 2.92105,-2.674935 0.6297,0 0.41343,0.358037 -0.88864,1.471139 -1.57801,1.348989 -1.84496,1.507101 -2.03241,1.203796 z m 43.30744,-1.032743 c -1.41287,-1.266573 -1.65388,-1.642192 -1.05369,-1.642192 0.49157,0 3.13424,2.383348 2.9583,2.668016 -0.24245,0.3923 -0.44344,0.284046 -1.90461,-1.025824 z m -7.5914,-5.301726 c -1.28032,-0.691335 -1.86261,-1.373645 -1.1618,-1.361368 0.54076,0.0095 2.94876,1.406001 3.06879,1.779757 0.16054,0.499938 -0.45736,0.36437 -1.90699,-0.418389 z m -28.058,0.214919 c 0.19312,-0.312476 2.62546,-1.582468 3.0308,-1.582468 0.66931,0 0.16437,0.575493 -1.04074,1.186167 -1.35348,0.685863 -2.28348,0.871064 -1.99006,0.396301 z m 8.51743,-2.932801 c 0.20927,-0.209272 0.43041,-0.211553 0.78052,-0.008 0.42827,0.248928 0.39225,0.284946 -0.292,0.291999 -0.5692,0.0059 -0.70146,-0.07101 -0.48852,-0.283953 z m 2.47347,0.04154 c -0.29974,-0.189629 -0.2251,-0.282003 0.34305,-0.4246 0.79282,-0.198986 1.11719,-0.04811 0.84465,0.392869 -0.21253,0.343881 -0.67478,0.356232 -1.1877,0.03173 z m 6.78436,0.08126 c -0.37253,-0.372536 0.17636,-0.624366 1.35339,-0.620943 1.45526,0.0042 2.43178,0.227674 2.43178,0.556414 0,0.26494 -3.52467,0.325027 -3.78517,0.06453 z"
         id="path851" />
      <path
         style="fill:#3158a0;stroke-width:0.264583"
         d="m -140.58895,124.72068 c -10.53118,-0.91114 -19.76593,-3.56537 -29.23623,-8.40302 -3.82409,-1.95344 -10.18109,-5.99382 -11.11272,-7.06302 -0.79796,-0.91579 -0.009,-0.53947 2.14694,1.02408 2.75154,1.99547 6.44902,4.17745 10.42076,6.14956 16.19807,8.04289 32.44308,9.9067 49.56217,5.68633 9.57824,-2.36132 20.12582,-6.87965 27.92301,-11.96153 1.21616,-0.79265 2.34251,-1.39742 2.50299,-1.34393 0.59058,0.19686 -5.50437,3.95357 -10.38809,6.40285 -8.93697,4.48206 -18.38979,7.5219 -27.65529,8.89341 -3.29068,0.48709 -11.5154,0.84438 -14.16354,0.61527 z m -61.51562,-14.58046 c -5.94765,-0.31576 -13.04687,-1.49253 -17.18819,-2.84913 -5.10514,-1.67232 -8.60494,-3.77187 -11.94823,-7.16781 -8.41289,-8.545384 -12.48105,-23.406064 -9.22105,-33.68371 2.03629,-6.419688 7.15094,-10.6481 14.80612,-12.24059 3.09416,-0.643673 8.51948,-1.015595 14.88625,-1.0205 l 5.09323,-0.0039 v 0.751753 0.751752 l -7.49672,0.180782 c -4.1232,0.09943 -8.61781,0.35007 -9.98802,0.556975 -8.55091,1.291208 -13.80065,5.214032 -15.81037,11.814174 -2.94717,9.67884 1.01879,23.74941 8.94642,31.74041 6.18854,6.238004 13.85491,8.695044 30.10976,9.650064 2.5055,0.1472 3.02428,0.25248 3.24115,0.65769 0.14201,0.26534 0.25819,0.60933 0.25819,0.76442 0,0.27271 -1.80677,0.30372 -5.68854,0.0976 z m 127.92604,-0.0582 c 0,-0.17676 0.11611,-0.53835 0.25803,-0.80353 0.21944,-0.41002 0.74381,-0.50835 3.50573,-0.65738 15.80058,-0.85256 23.98353,-3.47531 30.10992,-9.650674 4.45315,-4.48875 7.8801,-11.25704 9.29722,-18.36222 0.75186,-3.76969 0.74124,-9.283979 -0.0235,-12.196364 -1.68577,-6.420077 -5.50205,-10.210368 -12.24897,-12.165546 -3.1704,-0.918747 -6.28671,-1.226942 -14.4943,-1.433446 l -7.27604,-0.183066 v -0.661488 -0.661458 l 7.67292,0.03281 c 10.72689,0.04587 14.36652,0.655582 19.27886,3.229623 4.04729,2.12076 6.83676,5.475515 8.24513,9.916009 3.22974,10.183146 -0.87964,25.150536 -9.23549,33.63799 -6.39152,6.49218 -15.11861,9.30545 -31.31923,10.09609 -2.8824,0.14068 -3.77031,0.10832 -3.77031,-0.13738 z m -66.80729,-10.622904 c -11.16455,-0.3967 -21.71274,-1.89006 -31.79797,-4.50181 -6.04012,-1.5642 -14.74214,-4.72352 -14.28089,-5.18477 0.096,-0.0959 0.44216,-0.0382 0.76936,0.12841 2.79397,1.42232 12.2559,4.35973 18.40095,5.7125 11.17413,2.45987 20.66999,3.4334 33.39084,3.42331 18.82711,-0.0149 35.0813,-2.59753 47.12091,-7.4869 3.33177,-1.35306 4.91508,-1.75284 3.0539,-0.7711 -0.56214,0.29652 -2.34808,1.05155 -3.96875,1.67784 -9.73049,3.76024 -24.22738,6.41732 -37.57648,6.88725 -8.44582,0.29732 -9.71565,0.30701 -15.11187,0.11527 z m -47.33971,-26.936471 c -0.0796,-0.128749 3.57487,-0.293899 8.25261,-0.372946 8.44101,-0.142639 12.17999,-0.445278 18.84565,-1.525391 4.02223,-0.65177 5.18305,-0.947185 10.95744,-2.788555 7.31313,-2.332051 8.88037,-2.597986 15.36942,-2.607948 6.51535,-0.01 7.82069,0.234633 14.81667,2.776792 4.90496,1.782336 6.30158,2.191906 9.42049,2.762644 5.47388,1.001678 8.62912,1.235117 18.60391,1.37641 6.87132,0.09733 9.88433,0.225166 9.56176,0.405688 -0.73851,0.41329 -18.09413,0.08493 -22.24033,-0.420777 -7.18399,-0.876224 -9.65465,-1.460918 -16.13958,-3.819515 -6.77361,-2.46359 -10.86058,-3.107422 -16.88669,-2.660205 -3.98273,0.295571 -6.8625,0.924835 -12.62639,2.759019 -7.42679,2.363349 -11.83784,3.182128 -21.24158,3.942855 -5.37622,0.434917 -16.46029,0.549074 -16.69338,0.171929 z"
         id="path849" />
    </g>
    <text
       xml:space="preserve"
       style="font-style:normal;font-variant:normal;font-weight:normal;font-stretch:normal;font-size:19.7556px;line-height:0.65;font-family:'Cooper Black';-inkscape-font-specification:'Cooper Black, ';letter-spacing:0px;word-spacing:-1.32292px;fill:#3158a0;fill-opacity:1;stroke:none;stroke-width:0.264583"
       x="-73.353706"
       y="399.65201"
       id="text880"
       inkscape:export-xdpi="95.800003"
       inkscape:export-ydpi="95.800003"><tspan
         sodipodi:role="line"
         id="tspan878"
         x="-73.353706"
         y="399.65201"
         style="font-style:normal;font-variant:normal;font-weight:normal;font-stretch:normal;font-size:19.7556px;font-family:'Cooper Black';-inkscape-font-specification:'Cooper Black, ';fill:#3158a0;fill-opacity:1;stroke-width:0.264583"
         dx="0">Face Mask Detector</tspan></text>
  </g>
</svg>
